<svg xmlns="http://www.w3.org/2000/svg" viewBox="0 0 96 40" fill="none" aria-hidden="true">
  <g fill="#f7f5ef">
    <ellipse cx="46" cy="9" rx="26" ry="5.5" opacity=".28"/>
    <rect x="18" y="8" width="56" height="2" rx="1" opacity=".9"/>
    <circle cx="20" cy="9" r="5.6" opacity=".55"/>
    <circle cx="72" cy="9" r="5.6" opacity=".55"/>
    <circle cx="20" cy="9" r="2.1"/>
    <circle cx="72" cy="9" r="2.1"/>
    <path d="M34 14h24c3.2 0 5.2 2.2 5.2 5.1 0 3.4-2.8 6.1-6.4 6.1H41c-4.4 0-7.2-2.8-7.2-6.4 0-2.7 1.8-4.8 5.2-4.8Z"/>
    <circle cx="62" cy="20" r="3.1"/>
    <path d="M61 23.2c3.4.6 6.8 2.6 8.6 5.2.4.6-.1 1.4-.8 1.2-3.2-.8-6.4-2.6-8.2-5.1-.4-.5 0-1.3.4-1.3Z" opacity=".85"/>
    <rect x="38" y="25" width="12" height="3.2" rx="1.4" opacity=".9"/>
    <path d="M32 28.5h8.5M47.5 28.5H56" stroke="#f7f5ef" stroke-width="1.4" stroke-linecap="round"/>
  </g>
</svg>
